<svg width="176" height="76" viewBox="0 0 176 76" fill="none" xmlns="http://www.w3.org/2000/svg">
<g filter="url(#filter0_d_6_2154)">
<path d="M30 48.5V22.3182H48.4091V28.0455H37.1079V32.5455H47.2841V38.2727H37.1079V48.5H30ZM57.7714 22.3182V48.5H50.6634V22.3182H57.7714ZM60.78 48.5V22.3182H67.8879V42.7727H78.4732V48.5H60.78ZM88.0943 22.3182V48.5H80.9864V22.3182H88.0943Z" fill="white"/>
<path d="M30 48.5V22.3182H48.4091V28.0455H37.1079V32.5455H47.2841V38.2727H37.1079V48.5H30ZM57.7714 22.3182V48.5H50.6634V22.3182H57.7714ZM60.78 48.5V22.3182H67.8879V42.7727H78.4732V48.5H60.78ZM88.0943 22.3182V48.5H80.9864V22.3182H88.0943Z" fill="url(#paint0_linear_6_2154)" fill-opacity="0.8"/>
<path d="M97.9148 48.5V22.3182H109.216C111.159 22.3182 112.859 22.7017 114.317 23.4688C115.774 24.2358 116.908 25.3139 117.717 26.7031C118.527 28.0923 118.932 29.7159 118.932 31.5739C118.932 33.4489 118.514 35.0724 117.679 36.4446C116.852 37.8168 115.689 38.8736 114.189 39.6151C112.697 40.3565 110.955 40.7273 108.96 40.7273H102.21V35.2045H107.528C108.364 35.2045 109.075 35.0597 109.663 34.7699C110.26 34.4716 110.716 34.0497 111.031 33.5043C111.355 32.9588 111.517 32.3153 111.517 31.5739C111.517 30.8239 111.355 30.1847 111.031 29.6562C110.716 29.1193 110.26 28.7102 109.663 28.429C109.075 28.1392 108.364 27.9943 107.528 27.9943H105.023V48.5H97.9148ZM145.623 32.1364H138.413C138.362 31.5398 138.225 30.9986 138.004 30.5128C137.791 30.027 137.492 29.6094 137.109 29.2599C136.734 28.902 136.278 28.6293 135.741 28.4418C135.204 28.2457 134.595 28.1477 133.913 28.1477C132.72 28.1477 131.71 28.4375 130.883 29.017C130.065 29.5966 129.443 30.4276 129.016 31.5099C128.599 32.5923 128.39 33.892 128.39 35.4091C128.39 37.0114 128.603 38.3537 129.029 39.4361C129.464 40.5099 130.09 41.3196 130.909 41.8651C131.727 42.402 132.711 42.6705 133.862 42.6705C134.518 42.6705 135.106 42.5895 135.626 42.4276C136.146 42.2571 136.597 42.0142 136.981 41.6989C137.364 41.3835 137.676 41.0043 137.914 40.5611C138.161 40.1094 138.328 39.6023 138.413 39.0398L145.623 39.0909C145.538 40.1989 145.227 41.3281 144.69 42.4787C144.153 43.6207 143.39 44.6776 142.401 45.6491C141.421 46.6122 140.207 47.3878 138.758 47.9759C137.309 48.5639 135.626 48.858 133.708 48.858C131.305 48.858 129.149 48.3423 127.239 47.3111C125.339 46.2798 123.835 44.7628 122.727 42.7599C121.627 40.7571 121.078 38.3068 121.078 35.4091C121.078 32.4943 121.64 30.0398 122.765 28.0455C123.89 26.0426 125.407 24.5298 127.316 23.5071C129.225 22.4759 131.356 21.9602 133.708 21.9602C135.362 21.9602 136.883 22.1861 138.272 22.6378C139.661 23.0895 140.88 23.75 141.928 24.6193C142.977 25.4801 143.82 26.5412 144.46 27.8026C145.099 29.0639 145.487 30.5085 145.623 32.1364Z" fill="white"/>
</g>
<path d="M36.8728 57.9574V56.8636H43.0773V57.9574H40.5716V64.5H39.3983V57.9574H36.8728ZM47.4946 64.6591C46.8052 64.6591 46.2003 64.495 45.6799 64.1669C45.1629 63.8388 44.7585 63.3797 44.4669 62.7898C44.1785 62.1998 44.0343 61.5104 44.0343 60.7216C44.0343 59.9261 44.1785 59.2318 44.4669 58.6385C44.7585 58.0452 45.1629 57.5845 45.6799 57.2564C46.2003 56.9283 46.8052 56.7642 47.4946 56.7642C48.184 56.7642 48.7872 56.9283 49.3042 57.2564C49.8246 57.5845 50.2289 58.0452 50.5173 58.6385C50.809 59.2318 50.9548 59.9261 50.9548 60.7216C50.9548 61.5104 50.809 62.1998 50.5173 62.7898C50.2289 63.3797 49.8246 63.8388 49.3042 64.1669C48.7872 64.495 48.184 64.6591 47.4946 64.6591ZM47.4946 63.6051C48.0182 63.6051 48.4491 63.4709 48.7872 63.2024C49.1252 62.9339 49.3755 62.581 49.5379 62.1435C49.7003 61.706 49.7815 61.232 49.7815 60.7216C49.7815 60.2112 49.7003 59.7356 49.5379 59.2947C49.3755 58.8539 49.1252 58.4976 48.7872 58.2259C48.4491 57.9541 48.0182 57.8182 47.4946 57.8182C46.9709 57.8182 46.54 57.9541 46.2019 58.2259C45.8639 58.4976 45.6136 58.8539 45.4512 59.2947C45.2888 59.7356 45.2076 60.2112 45.2076 60.7216C45.2076 61.232 45.2888 61.706 45.4512 62.1435C45.6136 62.581 45.8639 62.9339 46.2019 63.2024C46.54 63.4709 46.9709 63.6051 47.4946 63.6051ZM52.0697 64.5V63.4062H52.3481C52.5768 63.4062 52.7673 63.3615 52.9198 63.272C53.0723 63.1792 53.1949 63.0185 53.2877 62.7898C53.3838 62.5578 53.4567 62.2363 53.5065 61.8253C53.5595 61.411 53.5976 60.884 53.6208 60.2443L53.76 56.8636H58.8509V64.5H57.6776V57.9574H54.8736L54.7543 60.6818C54.7278 61.3082 54.6715 61.8601 54.5853 62.3374C54.5024 62.8113 54.3748 63.209 54.2025 63.5305C54.0334 63.852 53.8081 64.094 53.5263 64.2564C53.2446 64.4188 52.8916 64.5 52.4674 64.5H52.0697ZM62.0178 59.6278H64.2053C65.1002 59.6278 65.7846 59.8549 66.2586 60.3089C66.7325 60.763 66.9695 61.3381 66.9695 62.0341C66.9695 62.4915 66.8635 62.9074 66.6513 63.282C66.4392 63.6532 66.1277 63.9498 65.7167 64.1719C65.3057 64.3906 64.8019 64.5 64.2053 64.5H61.0036V56.8636H62.1769V63.4062H64.2053C64.6693 63.4062 65.0505 63.2836 65.3488 63.0384C65.6471 62.7931 65.7962 62.4782 65.7962 62.0938C65.7962 61.6894 65.6471 61.3596 65.3488 61.1044C65.0505 60.8492 64.6693 60.7216 64.2053 60.7216H62.0178V59.6278ZM68.7556 64.5V56.8636H69.9289V60.1847H70.7044L73.4487 56.8636H74.9601L71.8777 60.5426L74.9999 64.5H73.4885L70.9828 61.2784H69.9289V64.5H68.7556ZM79.0629 64.6591C78.3735 64.6591 77.7686 64.495 77.2483 64.1669C76.7312 63.8388 76.3269 63.3797 76.0352 62.7898C75.7469 62.1998 75.6027 61.5104 75.6027 60.7216C75.6027 59.9261 75.7469 59.2318 76.0352 58.6385C76.3269 58.0452 76.7312 57.5845 77.2483 57.2564C77.7686 56.9283 78.3735 56.7642 79.0629 56.7642C79.7523 56.7642 80.3555 56.9283 80.8726 57.2564C81.3929 57.5845 81.7973 58.0452 82.0856 58.6385C82.3773 59.2318 82.5231 59.9261 82.5231 60.7216C82.5231 61.5104 82.3773 62.1998 82.0856 62.7898C81.7973 63.3797 81.3929 63.8388 80.8726 64.1669C80.3555 64.495 79.7523 64.6591 79.0629 64.6591ZM79.0629 63.6051C79.5866 63.6051 80.0175 63.4709 80.3555 63.2024C80.6936 62.9339 80.9438 62.581 81.1062 62.1435C81.2686 61.706 81.3498 61.232 81.3498 60.7216C81.3498 60.2112 81.2686 59.7356 81.1062 59.2947C80.9438 58.8539 80.6936 58.4976 80.3555 58.2259C80.0175 57.9541 79.5866 57.8182 79.0629 57.8182C78.5392 57.8182 78.1084 57.9541 77.7703 58.2259C77.4322 58.4976 77.182 58.8539 77.0196 59.2947C76.8572 59.7356 76.776 60.2112 76.776 60.7216C76.776 61.232 76.8572 61.706 77.0196 62.1435C77.182 62.581 77.4322 62.9339 77.7703 63.2024C78.1084 63.4709 78.5392 63.6051 79.0629 63.6051ZM87.5755 64.5V63.4062H87.8539C88.0826 63.4062 88.2732 63.3615 88.4257 63.272C88.5781 63.1792 88.7008 63.0185 88.7936 62.7898C88.8897 62.5578 88.9626 62.2363 89.0123 61.8253C89.0653 61.411 89.1035 60.884 89.1267 60.2443L89.2659 56.8636H94.3568V64.5H93.1835V57.9574H90.3795L90.2602 60.6818C90.2337 61.3082 90.1773 61.8601 90.0911 62.3374C90.0083 62.8113 89.8807 63.209 89.7083 63.5305C89.5393 63.852 89.3139 64.094 89.0322 64.2564C88.7505 64.4188 88.3975 64.5 87.9732 64.5H87.5755ZM96.9917 67.3636C96.7929 67.3636 96.6155 67.3471 96.4598 67.3139C96.304 67.2841 96.1963 67.2543 96.1366 67.2244L96.4349 66.1903C96.7199 66.2633 96.9718 66.2898 97.1906 66.2699C97.4093 66.25 97.6032 66.1522 97.7723 65.9766C97.9446 65.8042 98.102 65.5241 98.2446 65.1364L98.4633 64.5398L95.6394 56.8636H96.9122L99.0201 62.9489H99.0997L101.208 56.8636H102.48L99.2389 65.6136C99.093 66.008 98.9124 66.3345 98.697 66.593C98.4815 66.8549 98.2313 67.0488 97.9463 67.1747C97.6645 67.3007 97.3464 67.3636 96.9917 67.3636ZM109.683 56.8636V64.5H108.51V56.8636H109.683ZM109.226 60.5028V61.5966C108.96 61.696 108.697 61.7839 108.435 61.8601C108.173 61.933 107.898 61.991 107.61 62.0341C107.321 62.0739 107.005 62.0938 106.66 62.0938C105.795 62.0938 105.101 61.8601 104.577 61.3928C104.057 60.9254 103.797 60.2244 103.797 59.2898V56.8438H104.97V59.2898C104.97 59.6809 105.044 60.0024 105.194 60.2543C105.343 60.5062 105.545 60.6934 105.8 60.8161C106.055 60.9387 106.342 61 106.66 61C107.157 61 107.606 60.9553 108.008 60.8658C108.412 60.773 108.818 60.652 109.226 60.5028ZM111.836 56.8636H113.009V63.4062H115.892V56.8636H117.066V63.4062H119.949V56.8636H121.123V64.5H111.836V56.8636ZM126.467 64.6591C125.731 64.6591 125.097 64.4967 124.563 64.1719C124.033 63.8438 123.623 63.3864 123.335 62.7997C123.05 62.2098 122.907 61.5237 122.907 60.7415C122.907 59.9593 123.05 59.2699 123.335 58.6733C123.623 58.0734 124.024 57.6061 124.538 57.2713C125.055 56.9332 125.658 56.7642 126.348 56.7642C126.745 56.7642 127.138 56.8305 127.526 56.9631C127.914 57.0956 128.267 57.3111 128.585 57.6094C128.903 57.9044 129.157 58.2955 129.346 58.7827C129.535 59.2699 129.629 59.8698 129.629 60.5824V61.0795H123.743V60.0653H128.436C128.436 59.6345 128.35 59.25 128.177 58.9119C128.008 58.5739 127.766 58.3071 127.451 58.1115C127.14 57.916 126.772 57.8182 126.348 57.8182C125.88 57.8182 125.476 57.9342 125.135 58.1662C124.797 58.3949 124.536 58.6932 124.354 59.0611C124.172 59.429 124.081 59.8234 124.081 60.2443V60.9205C124.081 61.4972 124.18 61.986 124.379 62.3871C124.581 62.7848 124.861 63.0881 125.219 63.2969C125.577 63.5024 125.993 63.6051 126.467 63.6051C126.775 63.6051 127.054 63.562 127.302 63.4759C127.554 63.3864 127.771 63.2538 127.954 63.0781C128.136 62.8991 128.277 62.6771 128.376 62.4119L129.51 62.7301C129.39 63.1146 129.19 63.4527 128.908 63.7443C128.626 64.0327 128.278 64.258 127.864 64.4205C127.45 64.5795 126.984 64.6591 126.467 64.6591ZM134.615 64.6591C133.88 64.6591 133.245 64.4967 132.711 64.1719C132.181 63.8438 131.772 63.3864 131.483 62.7997C131.198 62.2098 131.056 61.5237 131.056 60.7415C131.056 59.9593 131.198 59.2699 131.483 58.6733C131.772 58.0734 132.173 57.6061 132.686 57.2713C133.204 56.9332 133.807 56.7642 134.496 56.7642C134.894 56.7642 135.287 56.8305 135.674 56.9631C136.062 57.0956 136.415 57.3111 136.733 57.6094C137.052 57.9044 137.305 58.2955 137.494 58.7827C137.683 59.2699 137.777 59.8698 137.777 60.5824V61.0795H131.891V60.0653H136.584C136.584 59.6345 136.498 59.25 136.326 58.9119C136.157 58.5739 135.915 58.3071 135.6 58.1115C135.288 57.916 134.92 57.8182 134.496 57.8182C134.029 57.8182 133.624 57.9342 133.283 58.1662C132.945 58.3949 132.685 58.6932 132.503 59.0611C132.32 59.429 132.229 59.8234 132.229 60.2443V60.9205C132.229 61.4972 132.329 61.986 132.527 62.3871C132.73 62.7848 133.01 63.0881 133.368 63.2969C133.726 63.5024 134.142 63.6051 134.615 63.6051C134.924 63.6051 135.202 63.562 135.451 63.4759C135.703 63.3864 135.92 63.2538 136.102 63.0781C136.284 62.8991 136.425 62.6771 136.525 62.4119L137.658 62.7301C137.539 63.1146 137.338 63.4527 137.057 63.7443C136.775 64.0327 136.427 64.258 136.012 64.4205C135.598 64.5795 135.133 64.6591 134.615 64.6591Z" fill="#D1D1D1"/>
<defs>
<filter id="filter0_d_6_2154" x="0" y="-11.0396" width="175.623" height="86.8975" filterUnits="userSpaceOnUse" color-interpolation-filters="sRGB">
<feFlood flood-opacity="0" result="BackgroundImageFix"/>
<feColorMatrix in="SourceAlpha" type="matrix" values="0 0 0 0 0 0 0 0 0 0 0 0 0 0 0 0 0 0 127 0" result="hardAlpha"/>
<feOffset dy="-3"/>
<feGaussianBlur stdDeviation="15"/>
<feComposite in2="hardAlpha" operator="out"/>
<feColorMatrix type="matrix" values="0 0 0 0 0.217222 0 0 0 0 0.00058338 0 0 0 0 0.35 0 0 0 1 0"/>
<feBlend mode="normal" in2="BackgroundImageFix" result="effect1_dropShadow_6_2154"/>
<feBlend mode="normal" in="SourceGraphic" in2="effect1_dropShadow_6_2154" result="shape"/>
</filter>
<linearGradient id="paint0_linear_6_2154" x1="87.7364" y1="13.5" x2="87.7364" y2="58.5" gradientUnits="userSpaceOnUse">
<stop stop-color="#A145BD"/>
<stop offset="1" stop-color="#370059"/>
</linearGradient>
</defs>
</svg>
