<svg width="220" height="220" viewBox="0 0 220 220" fill="none" xmlns="http://www.w3.org/2000/svg">
<mask id="path-1-inside-1_20_1319" fill="white">
<path d="M170.32 156.487C178.959 145.278 184.303 131.882 185.753 117.805C187.204 103.727 184.703 89.5236 178.531 76.7881C172.359 64.0526 162.76 53.2889 150.812 45.7046C138.863 38.1203 125.038 34.0155 110.887 33.8508C96.7353 33.686 82.818 37.4678 70.6963 44.7718C58.5745 52.0759 48.7279 62.6132 42.2611 75.2015C35.7942 87.7899 32.9631 101.931 34.0854 116.039C35.2076 130.147 40.2388 143.662 48.6144 155.07L68.3612 140.572C62.6799 132.834 59.2671 123.666 58.5059 114.096C57.7447 104.527 59.6651 94.9345 64.0516 86.3957C68.4382 77.8568 75.1173 70.7092 83.3397 65.7547C91.5621 60.8003 101.002 58.235 110.601 58.3468C120.2 58.4585 129.578 61.2429 137.683 66.3874C145.788 71.532 152.299 78.8332 156.485 87.4719C160.672 96.1105 162.369 105.745 161.385 115.294C160.401 124.843 156.776 133.929 150.916 141.533L170.32 156.487Z"/>
</mask>
<path d="M170.32 156.487C178.959 145.278 184.303 131.882 185.753 117.805C187.204 103.727 184.703 89.5236 178.531 76.7881C172.359 64.0526 162.76 53.2889 150.812 45.7046C138.863 38.1203 125.038 34.0155 110.887 33.8508C96.7353 33.686 82.818 37.4678 70.6963 44.7718C58.5745 52.0759 48.7279 62.6132 42.2611 75.2015C35.7942 87.7899 32.9631 101.931 34.0854 116.039C35.2076 130.147 40.2388 143.662 48.6144 155.07L68.3612 140.572C62.6799 132.834 59.2671 123.666 58.5059 114.096C57.7447 104.527 59.6651 94.9345 64.0516 86.3957C68.4382 77.8568 75.1173 70.7092 83.3397 65.7547C91.5621 60.8003 101.002 58.235 110.601 58.3468C120.2 58.4585 129.578 61.2429 137.683 66.3874C145.788 71.532 152.299 78.8332 156.485 87.4719C160.672 96.1105 162.369 105.745 161.385 115.294C160.401 124.843 156.776 133.929 150.916 141.533L170.32 156.487Z" stroke="#D9D9D9" stroke-width="22.7586" mask="url(#path-1-inside-1_20_1319)"/>
<mask id="path-2-inside-2_20_1319" fill="white">
<path d="M170.32 156.487C178.959 145.278 184.303 131.882 185.753 117.805C187.204 103.727 184.703 89.5236 178.531 76.7881C172.359 64.0526 162.76 53.2889 150.812 45.7046C138.863 38.1203 125.038 34.0155 110.887 33.8508C96.7353 33.686 82.818 37.4678 70.6963 44.7718C58.5745 52.0759 48.7279 62.6132 42.2611 75.2015C35.7942 87.7899 32.9631 101.931 34.0854 116.039C35.2076 130.147 40.2388 143.662 48.6144 155.07L64.3809 143.494C58.1565 135.016 54.4175 124.972 53.5835 114.488C52.7495 104.004 54.8535 93.4944 59.6594 84.1393C64.4652 74.7842 71.7828 66.9533 80.7912 61.5253C89.7995 56.0972 100.142 53.2867 110.659 53.4092C121.175 53.5316 131.45 56.5821 140.329 62.2185C149.209 67.8548 156.342 75.8539 160.929 85.3184C165.516 94.7828 167.375 105.338 166.297 115.8C165.219 126.262 161.247 136.217 154.827 144.547L170.32 156.487Z"/>
</mask>
<path d="M170.32 156.487C178.959 145.278 184.303 131.882 185.753 117.805C187.204 103.727 184.703 89.5236 178.531 76.7881C172.359 64.0526 162.76 53.2889 150.812 45.7046C138.863 38.1203 125.038 34.0155 110.887 33.8508C96.7353 33.686 82.818 37.4678 70.6963 44.7718C58.5745 52.0759 48.7279 62.6132 42.2611 75.2015C35.7942 87.7899 32.9631 101.931 34.0854 116.039C35.2076 130.147 40.2388 143.662 48.6144 155.07L64.3809 143.494C58.1565 135.016 54.4175 124.972 53.5835 114.488C52.7495 104.004 54.8535 93.4944 59.6594 84.1393C64.4652 74.7842 71.7828 66.9533 80.7912 61.5253C89.7995 56.0972 100.142 53.2867 110.659 53.4092C121.175 53.5316 131.45 56.5821 140.329 62.2185C149.209 67.8548 156.342 75.8539 160.929 85.3184C165.516 94.7828 167.375 105.338 166.297 115.8C165.219 126.262 161.247 136.217 154.827 144.547L170.32 156.487Z" stroke="url(#paint0_linear_20_1319)" stroke-width="55.8398" mask="url(#path-2-inside-2_20_1319)"/>
<path d="M188.245 146.647L110.746 136.733L112.648 126.912L188.245 146.647Z" fill="black"/>
<circle cx="111.415" cy="131.804" r="5.14338" transform="rotate(2.06637 111.415 131.804)" fill="black"/>
<defs>
<linearGradient id="paint0_linear_20_1319" x1="46.5827" y1="102.051" x2="96.7614" y2="170.997" gradientUnits="userSpaceOnUse">
<stop stop-color="#A145BD"/>
<stop offset="1" stop-color="#370059"/>
</linearGradient>
</defs>
</svg>
